<!DOCTYPE svg PUBLIC "-//W3C//DTD SVG 1.1//EN" "http://www.w3.org/Graphics/SVG/1.1/DTD/svg11.dtd">
<!-- Uploaded to: SVG Repo, www.svgrepo.com, Transformed by: SVG Repo Mixer Tools -->
<svg width="800px" height="800px" viewBox="0 0 24 24" fill="none" xmlns="http://www.w3.org/2000/svg">
<g id="SVGRepo_bgCarrier" stroke-width="0"/>
<g id="SVGRepo_tracerCarrier" stroke-linecap="round" stroke-linejoin="round"/>
<g id="SVGRepo_iconCarrier"> <path d="M17.5 3.75H18C18.5523 3.75 19 4.08579 19 4.5M17.5 3.75H17C16.4477 3.75 16 4.08579 16 4.5V5.25C16 5.66421 16.4477 6 17 6H18C18.5523 6 19 6.33579 19 6.75V7.5C19 7.91421 18.5523 8.25 18 8.25H17.5M17.5 3.75V3M17.5 8.25H17C16.4477 8.25 16 7.91421 16 7.5M17.5 8.25V9M13.5 4.29076C13.0368 4.10325 12.5305 4 12 4C9.79086 4 8 5.79086 8 8C8 10.2091 9.79086 12 12 12C13.1947 12 14.2671 11.4762 15 10.6458M9.31765 14H14.6824C15.1649 14 15.4061 14 15.6219 14.0461C16.3688 14.2056 17.0147 14.7661 17.3765 15.569C17.4811 15.8009 17.5574 16.0765 17.71 16.6278C17.8933 17.2901 17.985 17.6213 17.9974 17.8884C18.0411 18.8308 17.5318 19.6817 16.7756 19.9297C16.5613 20 16.2714 20 15.6916 20H8.30844C7.72864 20 7.43875 20 7.22441 19.9297C6.46818 19.6817 5.95888 18.8308 6.00261 17.8884C6.01501 17.6213 6.10668 17.2901 6.29003 16.6278C6.44262 16.0765 6.51891 15.8009 6.62346 15.569C6.9853 14.7661 7.63116 14.2056 8.37806 14.0461C8.59387 14 8.83513 14 9.31765 14Z" stroke="#464455" stroke-linecap="round" stroke-linejoin="round"/> </g>
</svg>