<?xml version="1.0" encoding="iso-8859-1"?>
<!-- Uploaded to: SVG Repo, www.svgrepo.com, Generator: SVG Repo Mixer Tools -->
<svg height="800px" width="800px" version="1.1" id="Layer_1" xmlns="http://www.w3.org/2000/svg" xmlns:xlink="http://www.w3.org/1999/xlink" 
	 viewBox="0 0 451.584 451.584" xml:space="preserve">
<circle style="fill:#45B39C;" cx="225.792" cy="225.792" r="225.792"/>
<path style="opacity:0.1;enable-background:new    ;" d="M445.952,275.968L270.848,100.864l0,0l0,0l0,0
	c-1.536-1.536-4.608-3.072-8.192-3.584l-69.12,160.768l-17.408,6.144l-56.32,20.48c-9.216,3.072-15.36,11.264-17.408,20.48
	l-5.632,35.328c-0.512,3.584,0.512,6.656,2.56,9.216l0,0l0,0c0.512,0.512,1.024,1.024,1.536,1.536l98.304,98.304
	c8.704,1.024,17.92,1.536,26.624,1.536C333.312,451.584,422.912,376.32,445.952,275.968z"/>
<g>
	<path style="fill:#F6C358;" d="M225.792,284.672L225.792,284.672L225.792,284.672L225.792,284.672L225.792,284.672L225.792,284.672
		L225.792,284.672L225.792,284.672L225.792,284.672l32.256-21.504l0,0v-26.624c-2.56,1.536-4.608,3.584-7.168,5.632
		c-14.336,12.8-28.16,10.752-28.16,10.752c-8.192,0-20.48-8.192-25.6-12.288c-1.536-1.024-2.56-2.048-4.096-3.072v25.6l0,0
		L225.792,284.672z"/>
	<polygon style="fill:#F6C358;" points="225.792,279.552 225.792,279.552 225.792,279.552 225.792,279.552 215.552,293.888 
		215.552,293.888 	"/>
</g>
<path style="fill:#64798A;" d="M191.488,139.776h19.968c2.048,0,3.584-0.512,5.12-1.024c3.584-1.024,9.216-3.072,13.824-5.12
	c4.096-1.536,8.192-1.536,12.288,0l20.992,7.168c14.336,5.12,15.36,18.432,15.36,18.432v37.376c0,0,2.048-12.8,8.192-23.04
	c1.536-2.56,2.56-5.632,2.56-8.192v-31.744c0,0-2.048-15.872-17.408-19.456c0,0,6.144-13.312-10.24-16.896h-60.416l0,0
	c-22.016,0-40.448,17.92-40.448,40.448v24.064c0,5.12,1.536,10.24,5.12,14.336c2.56,3.072,5.12,8.192,5.632,15.36v-32.256
	C176.128,141.312,191.488,139.776,191.488,139.776z"/>
<path style="fill:#FCD462;" d="M223.232,258.048c0,0,13.824,2.048,28.16-10.752c2.048-2.048,4.608-3.584,7.168-5.632l0.512-0.512
	c6.144-4.096,18.432-15.872,20.992-44.032v-37.376c0,0-1.536-13.312-15.36-18.432l-22.016-7.68c-4.096-1.536-8.192-1.536-12.288,0
	c-4.608,1.536-10.24,3.584-13.824,5.12c-1.536,0.512-3.584,1.024-5.12,1.024h-19.968c0,0-15.36,2.048-19.456,19.456v31.744v7.168
	c0,0,0.512,30.72,20.992,44.032c0,0,0.512,0,0.512,0.512c1.536,1.024,2.56,2.048,4.096,3.072
	C202.752,249.344,214.528,258.048,223.232,258.048z"/>
<g>
	<polygon style="fill:#D5D6DB;" points="236.544,291.84 229.888,301.056 236.032,337.92 250.368,311.296 	"/>
	<polygon style="fill:#D5D6DB;" points="216.064,337.92 221.696,301.056 215.04,291.84 201.216,311.296 	"/>
	<polygon style="fill:#D5D6DB;" points="215.552,293.888 215.04,294.4 225.792,279.552 225.792,279.552 225.792,279.552 	"/>
</g>
<g>
	<polygon style="fill:#E56353;" points="236.544,334.848 231.424,302.592 237.056,294.4 237.056,294.4 225.792,279.552 
		225.792,279.552 225.792,279.552 215.04,294.4 215.04,294.4 215.04,294.4 215.04,294.4 220.672,302.592 215.04,335.36 
		215.04,335.36 225.792,354.304 236.544,335.36 	"/>
	<path style="fill:#E56353;" d="M225.792,354.304l1.024-1.024L225.792,354.304z"/>
	<path style="fill:#E56353;" d="M225.792,354.304l-1.024-1.024L225.792,354.304z"/>
	<polygon style="fill:#E56353;" points="225.792,354.304 225.792,354.304 225.792,354.304 225.792,354.304 225.792,354.304 	"/>
	<path style="fill:#E56353;" d="M225.792,279.552L225.792,279.552L225.792,279.552z"/>
	<path style="fill:#E56353;" d="M225.792,279.552L225.792,279.552L225.792,279.552z"/>
</g>
<g>
	<polygon style="fill:#E1E6E9;" points="225.792,279.552 225.792,279.552 225.792,279.552 225.792,279.552 225.792,279.552 
		225.792,279.552 225.792,279.552 225.792,279.552 225.792,279.552 237.056,294.4 249.344,311.808 275.456,264.192 258.048,258.048 
		258.048,258.048 	"/>
	<polygon style="fill:#E1E6E9;" points="215.04,294.4 215.04,294.4 215.552,293.888 225.792,279.552 225.792,279.552 
		225.792,279.552 225.792,279.552 193.536,258.048 193.536,258.048 176.128,264.192 202.24,311.808 	"/>
</g>
<g>
	<path style="fill:#3A556A;" d="M225.792,354.304L225.792,354.304h13.824H343.04c7.168,0,13.312-6.656,11.776-13.824l-5.632-35.328
		c-1.536-9.728-8.192-17.408-17.408-20.48l-56.32-20.48"/>
	<polygon style="fill:#3A556A;" points="225.792,354.304 225.792,354.304 225.792,354.304 	"/>
</g>
<g>
	<polygon style="fill:#2F4859;" points="236.544,335.36 225.792,354.304 225.792,354.304 225.792,354.304 226.816,353.28 
		278.016,306.688 271.872,294.4 290.304,294.4 275.456,264.192 249.344,311.808 	"/>
	<polygon style="fill:#2F4859;" points="225.792,354.304 225.792,354.304 225.792,354.304 225.792,354.304 	"/>
</g>
<path style="fill:#3A556A;" d="M225.792,354.304L225.792,354.304L225.792,354.304l-49.664-90.112l-56.32,20.48
	c-9.216,3.072-15.872,11.264-17.408,20.48l-5.632,35.328c-1.024,7.168,4.608,13.824,11.776,13.824H212.48h8.192l0,0H225.792
	L225.792,354.304L225.792,354.304z"/>
<polygon style="fill:#2F4859;" points="225.792,354.304 225.792,354.304 225.792,354.304 225.792,354.304 215.04,335.36 
	202.24,311.808 176.128,264.192 161.28,294.4 179.712,294.4 173.568,306.688 224.768,353.28 225.792,354.304 225.792,354.304 
	225.792,354.304 225.792,354.304 "/>
</svg>