<!DOCTYPE svg PUBLIC "-//W3C//DTD SVG 1.1//EN" "http://www.w3.org/Graphics/SVG/1.1/DTD/svg11.dtd">
<!-- Uploaded to: SVG Repo, www.svgrepo.com, Transformed by: SVG Repo Mixer Tools -->
<svg fill="#58595b" height="800px" width="800px" version="1.1" id="Capa_1" xmlns="http://www.w3.org/2000/svg" xmlns:xlink="http://www.w3.org/1999/xlink" viewBox="0 0 489.8 489.8" xml:space="preserve">
<g id="SVGRepo_bgCarrier" stroke-width="0"/>
<g id="SVGRepo_tracerCarrier" stroke-linecap="round" stroke-linejoin="round"/>
<g id="SVGRepo_iconCarrier"> <g> <g> <g> <path d="M489.8,244.9c0-9.5-7.7-17.1-17.1-17.1H160.4l77.6-77.6c6.7-6.7,6.7-17.6,0-24.3s-17.6-6.7-24.3,0L106.9,232.8 c-6.7,6.7-6.7,17.6,0,24.3l106.8,106.8c3.3,3.3,7.7,5,12.1,5s8.8-1.7,12.1-5c6.7-6.7,6.7-17.6,0-24.3L160.3,262h312.3 C482.1,262,489.8,254.4,489.8,244.9z"/> <path d="M34.3,438.7V51.1c0-9.5-7.7-17.1-17.1-17.1C7.7,34,0,41.7,0,51.1v387.6c0,9.5,7.7,17.1,17.2,17.1 C26.6,455.8,34.3,448.2,34.3,438.7z"/> </g> </g> <g> </g> <g> </g> <g> </g> <g> </g> <g> </g> <g> </g> <g> </g> <g> </g> <g> </g> <g> </g> <g> </g> <g> </g> <g> </g> <g> </g> <g> </g> </g> </g>
</svg>