<?xml version="1.0" encoding="iso-8859-1"?>
<!-- Uploaded to: SVG Repo, www.svgrepo.com, Generator: SVG Repo Mixer Tools -->
<svg height="800px" width="800px" version="1.1" id="Layer_1" xmlns="http://www.w3.org/2000/svg" xmlns:xlink="http://www.w3.org/1999/xlink" 
	 viewBox="0 0 408.759 408.759" xml:space="preserve">
<g>
	<path style="fill:#FFBE00;" d="M204.385,408.759c-58.121,0-113.674-24.867-152.417-68.225
		C18.46,303.057,0.005,254.703,0.005,204.381C0.005,91.685,91.689,0,204.385,0c50.317,0,98.674,18.455,136.164,51.964
		c43.346,38.762,68.205,94.316,68.205,152.417C408.755,317.076,317.075,408.759,204.385,408.759"/>
	<path style="fill:#F4502A;" d="M377.757,204.379c0,4.43-0.17,8.821-0.489,13.161c-1.01,13.399-3.54,26.37-7.42,38.74
		c-20.39,65.09-78.11,113.66-148.081,120.61c-1.481,0.15-2.96,0.279-4.439,0.39c-4.271,0.319-8.581,0.48-12.941,0.48
		c-51.39,0-97.559-22.361-129.301-57.881c-0.259-0.29-0.519-0.591-0.789-0.881c-26.951-30.56-43.29-70.68-43.29-114.62
		c0-95.749,77.619-173.38,173.379-173.38c43.95,0,84.069,16.35,114.631,43.29c0.29,0.27,0.589,0.53,0.879,0.79
		C355.408,106.84,377.757,152.989,377.757,204.379"/>
	<path style="fill:#C29100;" d="M74.327,319.03c3.012,3.413,6.156,6.706,9.424,9.872c-2.995-2.903-5.885-5.912-8.665-9.023
		C74.837,319.6,74.586,319.31,74.327,319.03 M62.022,303.365c0.015,0.022,0.03,0.043,0.045,0.065
		C62.052,303.407,62.038,303.387,62.022,303.365 M61.707,302.911c0.014,0.02,0.031,0.044,0.044,0.064
		C61.736,302.953,61.723,302.934,61.707,302.911 M61.502,302.614c0.021,0.03,0.04,0.058,0.061,0.088
		C61.543,302.673,61.522,302.642,61.502,302.614 M61.19,302.159c0.026,0.037,0.051,0.074,0.076,0.111
		C61.241,302.234,61.215,302.196,61.19,302.159 M60.889,301.718c0.025,0.037,0.054,0.08,0.08,0.117
		C60.942,301.796,60.915,301.757,60.889,301.718 M60.663,301.385c0.032,0.047,0.065,0.095,0.097,0.143
		C60.727,301.48,60.695,301.432,60.663,301.385 M60.37,300.95c0.034,0.05,0.065,0.097,0.099,0.147
		C60.435,301.047,60.403,301,60.37,300.95 M60.075,300.509c0.059,0.088,0.119,0.178,0.178,0.266
		C60.192,300.685,60.134,300.598,60.075,300.509 M59.831,300.144c0.045,0.068,0.089,0.134,0.134,0.202
		C59.92,300.277,59.877,300.212,59.831,300.144 M59.554,299.725c0.05,0.075,0.097,0.147,0.147,0.222
		C59.652,299.872,59.604,299.8,59.554,299.725 M59.27,299.292c0.064,0.098,0.129,0.197,0.194,0.295
		C59.399,299.489,59.334,299.39,59.27,299.292 M59.023,298.915c0.054,0.083,0.108,0.166,0.163,0.25
		C59.131,299.081,59.077,298.998,59.023,298.915 M58.758,298.507c0.057,0.089,0.114,0.177,0.172,0.265
		C58.873,298.684,58.815,298.595,58.758,298.507 M58.477,298.072c0.069,0.107,0.138,0.214,0.207,0.32
		C58.614,298.285,58.546,298.179,58.477,298.072 M58.221,297.673c0.065,0.102,0.129,0.202,0.194,0.303
		C58.351,297.875,58.286,297.774,58.221,297.673 M57.965,297.272c0.073,0.115,0.148,0.233,0.221,0.347
		C58.113,297.504,58.039,297.388,57.965,297.272 M57.696,296.847c0.073,0.115,0.147,0.232,0.219,0.346
		C57.841,297.077,57.769,296.963,57.696,296.847 M57.441,296.443c0.071,0.112,0.141,0.224,0.212,0.337
		C57.583,296.667,57.512,296.555,57.441,296.443 M57.192,296.045c0.077,0.123,0.15,0.24,0.227,0.363
		C57.344,296.287,57.268,296.166,57.192,296.045 M56.927,295.618c0.075,0.121,0.15,0.242,0.226,0.363
		C57.077,295.86,57.002,295.739,56.927,295.618 M56.675,295.21c0.074,0.121,0.149,0.241,0.223,0.362
		C56.823,295.451,56.749,295.331,56.675,295.21 M56.43,294.813c0.077,0.126,0.153,0.25,0.231,0.376
		C56.584,295.063,56.507,294.938,56.43,294.813 M56.167,294.381c0.078,0.129,0.154,0.252,0.232,0.381
		C56.322,294.636,56.243,294.507,56.167,294.381 M55.677,293.572c0.16,0.267,0.319,0.528,0.48,0.794
		C55.998,294.103,55.836,293.835,55.677,293.572 M54.934,292.324c0.239,0.406,0.48,0.81,0.722,1.214
		C55.415,293.135,55.173,292.729,54.934,292.324 M148.098,40.341C79.969,63.709,31.006,128.321,31.006,204.37
		c0,32.099,8.718,62.16,23.92,87.94c-15.202-25.781-23.918-55.837-23.918-87.931C31.008,128.33,79.969,63.712,148.098,40.341"/>
	<path style="fill:#BA3D20;" d="M204.385,31.001c-19.703,0-38.639,3.286-56.287,9.34C79.969,63.712,31.008,128.33,31.008,204.379
		c0,32.094,8.716,62.15,23.918,87.931c0.003,0.005,0.005,0.009,0.008,0.014c0.239,0.405,0.48,0.811,0.722,1.214
		c0.006,0.01,0.014,0.024,0.021,0.034c0.158,0.264,0.32,0.531,0.48,0.794c0.002,0.003,0.007,0.012,0.009,0.015
		c0.077,0.126,0.155,0.255,0.232,0.381c0.009,0.015,0.022,0.036,0.031,0.051c0.077,0.126,0.154,0.251,0.231,0.376
		c0.005,0.008,0.008,0.014,0.013,0.021c0.075,0.121,0.148,0.241,0.223,0.362c0.01,0.016,0.019,0.031,0.029,0.046
		c0.075,0.121,0.15,0.242,0.226,0.363c0.013,0.021,0.027,0.044,0.04,0.064c0.075,0.121,0.151,0.242,0.227,0.363
		c0.006,0.01,0.016,0.025,0.022,0.035c0.07,0.112,0.141,0.225,0.212,0.337c0.014,0.023,0.028,0.044,0.042,0.067
		c0.073,0.116,0.146,0.23,0.219,0.346c0.018,0.028,0.033,0.051,0.05,0.079c0.074,0.116,0.147,0.232,0.221,0.347
		c0.011,0.018,0.023,0.036,0.034,0.053c0.065,0.101,0.13,0.202,0.194,0.303c0.02,0.03,0.042,0.065,0.061,0.096
		c0.069,0.107,0.138,0.214,0.207,0.32c0.026,0.041,0.048,0.074,0.074,0.115c0.057,0.088,0.115,0.177,0.172,0.265
		c0.03,0.046,0.063,0.098,0.093,0.143c0.055,0.084,0.108,0.166,0.163,0.25c0.028,0.043,0.056,0.085,0.084,0.128
		c0.064,0.098,0.129,0.197,0.194,0.295c0.03,0.045,0.061,0.092,0.091,0.138c0.049,0.075,0.097,0.147,0.147,0.222
		c0.043,0.065,0.087,0.131,0.13,0.196c0.046,0.069,0.089,0.134,0.134,0.202c0.037,0.055,0.072,0.108,0.109,0.163
		c0.06,0.089,0.118,0.176,0.178,0.266c0.039,0.058,0.079,0.118,0.118,0.175c0.033,0.05,0.066,0.098,0.099,0.147
		c0.064,0.095,0.13,0.193,0.194,0.288c0.032,0.047,0.064,0.095,0.097,0.143c0.044,0.065,0.085,0.126,0.129,0.191
		c0.027,0.039,0.053,0.078,0.08,0.117c0.075,0.11,0.146,0.215,0.221,0.324c0.025,0.037,0.051,0.074,0.076,0.111
		c0.078,0.114,0.157,0.229,0.236,0.343c0.02,0.029,0.041,0.06,0.061,0.088c0.048,0.069,0.097,0.14,0.145,0.209
		c0.016,0.023,0.029,0.042,0.044,0.064c0.091,0.131,0.179,0.258,0.27,0.389c0.016,0.022,0.03,0.043,0.045,0.065
		c3.791,5.436,7.885,10.644,12.259,15.6c0.259,0.28,0.51,0.57,0.76,0.849c2.78,3.111,5.67,6.12,8.665,9.023
		c2.813,2.725,5.721,5.358,8.714,7.889c-25.53-30.2-40.919-69.241-40.919-111.881c0-95.749,77.619-173.368,173.379-173.368
		c42.629,0,81.68,15.39,111.87,40.919C305.004,54.871,257.485,31.001,204.385,31.001"/>
	<path style="fill:#BA3D20;" d="M204.387,112.21c-19.44,0-37.832,5.907-53.259,16.894c-8.645,6.773-13.829,12.076-13.829,12.076
		l64.573,64.573l-97.275,9.128l79.438,79.438c0.001,0,0.001,0,0.002,0l0,0c6.591,1.481,13.401,2.231,20.35,2.231
		c3.13,0,6.23-0.161,9.211-0.46c35.559-3.531,65.609-27.151,77.56-60.601l0,0c0.419-1.16,0.809-2.34,1.18-3.52
		c2.79-8.89,4.208-18.169,4.208-27.59c0-26.2-11.209-51.249-30.768-68.729l-0.19-0.179c-0.131-0.111-0.251-0.222-0.36-0.321
		C248.407,120.359,226.807,112.21,204.387,112.21"/>
	<polygon style="fill:#FFFFFF;" points="204.154,148.487 189.304,163.337 219.848,193.88 104.597,193.88 104.597,214.88 
		219.848,214.88 189.304,245.423 204.154,260.273 260.046,204.38 	"/>
	<path style="fill:#BA3D20;" d="M122.017,281.97L122.017,281.97L122.017,281.97 M289.143,129.414
		c18.184,20.573,28.405,47.245,28.405,74.964c0,11.56-1.741,22.961-5.171,33.88c-1.44,4.591-3.15,9.041-5.11,13.34
		c-16.581,36.251-51.181,61.371-91.55,65.38c-2.761,0.292-5.61,0.462-8.491,0.532c-0.94,0.03-1.889,0.039-2.84,0.039
		c-28.819,0-56.741-11.164-77.628-30.836l90.569,90.567c1.479-0.111,2.958-0.24,4.439-0.39
		c69.97-6.951,127.69-55.521,148.081-120.61c3.88-12.37,6.41-25.341,7.42-38.74L289.143,129.414"/>
	<path style="fill:#1CA4BA;" d="M317.548,204.379c0,11.56-1.741,22.961-5.171,33.88c-1.44,4.591-3.15,9.041-5.11,13.34
		c-16.581,36.251-51.181,61.371-91.55,65.38c-2.761,0.292-5.61,0.462-8.491,0.532c-0.94,0.03-1.889,0.039-2.84,0.039
		c-31.06,0-61.079-12.969-82.37-35.579l15.281-14.4c12.83,13.63,28.979,22.789,46.74,26.748c6.591,1.481,13.401,2.231,20.35,2.231
		c3.13,0,6.23-0.161,9.211-0.46c35.559-3.531,65.609-27.151,77.56-60.601c0.419-1.16,0.809-2.34,1.18-3.52
		c2.79-8.89,4.208-18.169,4.208-27.59c0-26.2-11.209-51.249-30.768-68.729l-0.19-0.179c-0.131-0.111-0.251-0.222-0.36-0.321
		c-16.821-14.79-38.421-22.939-60.841-22.939c-25.659,0-49.49,10.289-67.09,28.97l-15.281-14.4
		c21.611-22.941,50.862-35.57,82.37-35.57c27.57,0,54.141,10.038,74.81,28.259l0.249,0.231c0.151,0.129,0.281,0.24,0.401,0.36
		C303.807,141.509,317.548,172.24,317.548,204.379"/>
	<path style="fill:#157D8E;" d="M291.158,235.489L291.158,235.489c-11.951,33.45-42.001,57.07-77.56,60.601
		c-2.98,0.299-6.081,0.46-9.211,0.46c-6.949,0-13.759-0.75-20.35-2.231l23.19,23.192c2.881-0.07,5.73-0.24,8.491-0.532
		c40.369-4.009,74.969-29.129,91.55-65.38L291.158,235.489"/>
</g>
</svg>